# xmcd CD database file
#
# Track frame offsets:
#	150
#	13981
#	31432
#	56253
#	75995
#	102080
#	122063
#	142581
#	161983
#	179126
#	195107
#	213003
#	225417
#
# Disc length: 3245 seconds
#
# Revision: 0
# Processed by: cddbd v1.5.1PL2 Copyright (c) Steve Scherf et al.
# Submitted via: CDex 1.51
#
DISCID=9b0cab0d
DTITLE=Mo' Indigo - The Blues Inside
DYEAR=2006
DGENRE=Blues
TTITLE0=The Hurricane Song
TTITLE1=28 Days
TTITLE2=Am I Losing You
TTITLE3=You Can Have Her
TTITLE4=When An Angel Falls From Grace
TTITLE5=Fool Around Love
TTITLE6=Dance The Dirty Boogie
TTITLE7=Something Money Can't Buy
TTITLE8=Rule #1
TTITLE9=New Man Boogie
TTITLE10=Magic Man
TTITLE11=Coconut Pie
TTITLE12=(When Your) Flame Turns Blue
EXTD=YEAR: 2006
EXTT0=
EXTT1=
EXTT2=
EXTT3=
EXTT4=
EXTT5=
EXTT6=
EXTT7=
EXTT8=
EXTT9=
EXTT10=
EXTT11=
EXTT12=
PLAYORDER=
